<?xml version="1.0" encoding="utf-8"?>
<!-- Generator: Adobe Illustrator 25.2.1, SVG Export Plug-In . SVG Version: 6.00 Build 0)  -->
<svg version="1.1" id="Capa_1" xmlns="http://www.w3.org/2000/svg" xmlns:xlink="http://www.w3.org/1999/xlink" x="0px" y="0px"
	 viewBox="0 0 374.8 380.31" style="enable-background:new 0 0 374.8 380.31;" xml:space="preserve">
<style type="text/css">
	.st0{fill:#B9935A;}
</style>
<g>
	<g>
		<g>
			<path class="st0" d="M260.73,126.44c44.75-3.63,69.18,10.7,77.99,45.52c6.24,24.66-2.72,57.86-44.54,72.06
				c-1.66,21.93-9.76,33.64-28.15,37.1c-10.21,1.92-21.12,2.15-31.46,0.98c-26.32-2.99-50.56-13.66-75.29-22.41
				c-23.5-8.31-47.09-16.27-72.37-16.96c-12.29-0.34-24.43,0.69-35.27,7.12c-11.05,6.55-16.08,16.7-16,29.46
				c0.01,2.06,0,4.13-0.78,6.25c-3.7-5.38-3.17-11.5-2.18-17.24c3.07-17.78,16.48-30.43,34.55-33.32c24.26-3.89,47.66,0.64,70.57,8
				c24.6,7.91,48.86,16.9,73.47,24.8c15.62,5.02,31.65,7.89,48.29,5.54c11.89-1.68,22.99-8.9,24.65-18.63
				c0.94-5.51-0.89-11.49-1.49-17.38c5.9-2.06,13.02-3.84,19.51-6.93c21.64-10.29,31.35-28.96,28.36-53.34
				c-2.39-19.5-18.93-37.56-39.36-41.86c-11.87-2.5-23.82-0.67-35.57,2.02c-2.32,0.53-4.62,1.16-7.74,1.94
				c1.31-5.93,2.88-11.38,3.67-16.94c5.38-38.07-9.16-67.72-40.1-89.02c-25.68-17.67-54.74-19.54-84.39-12.66
				c-33.63,7.8-55.11,28.88-62.62,62.54c-4.27,19.13,0.09,37.24,15.43,50.72c14.57,12.81,31.7,17.39,50.67,11.27
				c17.85-5.75,25.94-27.11,16.84-43.53c-7.71-13.91-29.53-18.47-41.84-8.54c-7.43,5.99-9.42,14.01-7.32,23.13
				c2,8.68,8.39,11.93,16.79,12.65c-7.2,6.71-18.52,4.01-23.5-5.52c-6.8-13.02-3.03-34.22,15.88-41.72
				c19.86-7.88,43.07,1.36,50.05,19.97c8.13,21.68-2.37,44.87-23.6,52.1c-35.07,11.94-73.74-11.35-78.74-48.12
				C50.34,70.21,66.27,43.9,94.16,24.55c23.63-16.4,50.92-18.68,78.61-14.94c41.1,5.55,68.42,29.17,83.92,66.96
				c5.62,13.69,7.05,28.16,4.93,42.89C261.32,121.59,261.07,123.73,260.73,126.44z"/>
		</g>
		<g>
			<path class="st0" d="M171.79,368.49c-21.07-36.22-41.44-71.26-61.82-106.3c0.3-0.55,0.59-1.1,0.89-1.65
				c34.33,10.89,68.67,21.79,103.9,32.96C200.58,318.25,186.42,342.96,171.79,368.49z"/>
		</g>
	</g>
	<g>
		<path class="st0" d="M21.03,196.1c0,0-0.49-0.77-0.49-1.19c0-0.14,0.07-0.28,0.21-0.28l11.8-1.05l2.09-15.15
			c-4.26,0.42-8.45,0.63-12.71,0.63c-6.91,0-15.29-1.05-15.29-9.08c0-0.91,0.49-1.33,0.98-1.33c0.84,0,0.49,2.23,2.23,3.35
			c1.54,0.98,3.98,1.12,6.98,1.12c14.73,0,43.91-7.96,60.94-7.96c4.96,0,11.8,0.56,14.17,5.17c1.05,0.91,1.68,1.88,1.68,2.86
			c0,1.12-0.91,2.16-3.07,2.72c-1.75,0.42-3,0.63-3.91,0.63c-0.84,0-3-0.98-3-1.61c0-0.21,0.28-0.42,0.91-0.49
			c0.42-0.07,1.33-0.28,1.33-0.49c0-0.49-3.49-0.49-4.26-0.49c-15.01,0-29.32,3-43.7,4.61l-1.05,15.15
			c3.98-0.42,12.22-1.4,16.75-1.4c8.66,0,9.01,3.21,11.52,6.07c0.14,0.14,0.21,0.35,0.21,0.56c0,0.28-0.14,0.63-0.77,0.63
			c-9.7,0.28-20.45,1.26-28.34,2.02c-0.63,7.89-1.4,18.29-1.4,20.59c0,4.54,2.51,3,2.51,4.4c0,1.68-0.56,6.49-2.93,6.49
			c-3.07,0-4.82-5.45-4.82-8.1c0-4.4,1.12-15.15,1.95-22.97c-3,0.28-5.31,0.49-6.28,0.49c-0.56,0-1.26-0.07-2.02-0.42
			c-0.91-0.49-2.86-2.65-2.86-4.12c0-0.35,0.14-0.63,0.35-0.84C21.03,196.52,21.03,196.1,21.03,196.1z"/>
		<path class="st0" d="M60.68,224.86c-0.77,0-1.68-0.14-1.68-0.7c0-0.14,0-0.28,0.14-0.42c3.91-5.1,6.98-14.03,7.75-20.11
			c-1.54-1.47-2.3-4.05-2.3-6.42c0-2.86,1.12-5.45,3.28-5.45c2.09,0,2.58,1.47,2.58,3.21c0,1.47-0.35,3.21-0.35,4.54
			c0,1.19,0.14,1.67,0.63,1.67c0.35,0,0.84-0.28,1.54-0.7c2.44-1.61,6.14-5.51,6.7-5.51c0.91,0,2.3,1.82,2.3,2.79
			c0,0.49-0.21,0.91-0.21,0.91c-1.95,3.91-3.98,10.96-3.98,14.45c0,3.7,1.19,6,2.79,6c1.4,0,3.07-1.75,4.61-5.79
			c0.21-0.49,0.07-0.77,0.98-1.4c0.21-0.14,0.35-0.21,0.42-0.21c0.14,0,0.21,0.14,0.21,0.28s-0.07,0.35-0.07,0.35
			c-0.49,4.12-3.14,11.87-8.52,11.87c-3.84,0-4.96-3.98-4.96-8.45s1.12-9.42,1.75-11.73c-1.12,0.56-2.65,0.84-4.12,0.84
			c-0.35,0-0.77,0-1.05-0.07c-0.56,5.66-4.33,15.29-7.4,19.83C61.72,224.8,61.23,224.86,60.68,224.86z"/>
		<path class="st0" d="M101.37,199.11c1.26,0.35,3,0.91,3,1.75c0,2.02-0.98,8.38-0.98,13.33c0,3.56,0.49,6.35,2.23,6.35
			c1.54,0,3.42-1.4,4.12-3.07c0.77-0.21,0.91-1.12,1.12-1.12c0.28,0,0.28,0.42,0.28,0.63c0,3.7-3.28,7.05-6.49,7.05
			c-2.72,0-5.38-2.37-6.07-8.66c-1.88,4.89-4.54,8.66-7.26,8.66c-4.82,0-6.91-5.1-6.91-11.1c0-8.73,4.33-19.41,10.96-19.41
			C99.07,193.52,100.88,195.89,101.37,199.11z M99,201.2c-1.19-1.54-2.3-2.23-3.35-2.23c-4.33,0-7.19,11.24-7.19,16.75
			c0,2.86,0.7,4.89,2.09,4.89C96.28,220.61,98.37,206.72,99,201.2z"/>
		<path class="st0" d="M114.77,174.39c0.07,0,0.21,0,0.28,0.07c1.54,1.05,4.82,0.91,4.82,2.44c0,0.91-0.91,4.54-1.95,9.49
			c4.68-0.56,8.59-1.4,9.7-1.4c0.84,0,2.02,0,2.02,0.56c0,0.49-0.84,0.49-1.05,0.84c-0.49,0.77-0.63,1.33-0.63,1.33
			c-1.19,0.56-5.79,2.37-11.03,3.7c-1.47,7.33-2.86,16.27-2.86,23.88c0,5.45,0.7,10.19,2.65,13.26c0,0-0.07,0.98-0.98,0.98
			c-4.33-2.09-5.65-9.98-5.65-19.13c0-5.72,0.49-12.08,1.19-17.8c-1.54,0.28-3.07,0.35-4.47,0.35c-3.7,0-5.31-2.44-5.31-6.21
			c0-0.63,0.21-1.68,0.63-1.68c0.14,0,0.28,0.07,0.42,0.28c2.44,1.05,5.58,1.4,8.8,1.4h0.7c0.56-3.98,1.19-7.47,1.96-11.94
			C114.15,174.67,114.43,174.39,114.77,174.39z"/>
		<path class="st0" d="M154,172.44c0,8.03-3.21,27.16-9.7,39.93c1.12,6.49,3.07,9.35,5.45,9.35c1.95,0,4.19-2.16,6.35-5.93
			c-0.56-4.26-0.84-9.08-0.84-13.96c0-20.8,4.89-43.91,9.98-43.91c3.42,0,4.89,4.75,4.89,11.66c0,18.78-4.96,35.6-10.82,45.72
			c1.26,8.17,4.05,14.03,9.08,14.03c1.19,0,3.07-0.21,4.75-4.33c0.28-0.63,0.42-0.84,0.56-0.84s0.21,0.28,0.21,0.49v0.21
			c0,0.14,0.42,0.28,0.42,0.28c0,3.14-2.86,9.15-6.7,9.15c-5.79,0-9.21-6.21-10.96-15.01c-2.86,3.77-5.86,6-8.52,6
			c-2.86,0-5.24-2.44-6.77-7.89c-3.07,4.12-7.26,6.84-11.17,6.84c-4.33,0-8.38-3.35-10.33-11.66c-0.28,0-0.56,0-0.84-0.07
			c-0.42-0.07-0.14-0.77-0.91-1.61c-0.07-0.07-0.14-0.14-0.14-0.21c0-0.28,0.49-0.63,0.84-0.63l1.05,0.21
			c0.42-8.45,4.68-17.24,11.17-17.24c3.07,0,4.82,2.72,4.82,6.28c0,4.75-3.14,10.96-10.47,13.75c0.56,6.7,3,9.14,5.93,9.14
			c3.21,0,7.05-3,9.56-6.49c-0.84-3.91-1.33-9-1.33-15.5c0-19.06,4.75-38.39,9.91-38.39C152.68,161.83,154,166.09,154,172.44z
			 M125.31,210.14c5.03-1.81,7.12-6.84,7.12-10.12c0-1.68-0.56-2.93-1.61-2.93C127.69,197.08,125.45,203.92,125.31,210.14z
			 M149.19,168.74c-2.65,0-5.72,15.15-5.72,30.23c0,4.33,0.21,7.96,0.56,10.96c5.03-11.66,6.77-28.34,6.77-35.32
			C150.79,170.97,150.3,168.74,149.19,168.74z M164.34,166.02c-2.44,0-5.93,18.78-5.93,35.88c0,2.93,0.07,5.79,0.28,8.45
			c3.7-9.15,6.56-23.04,6.63-38.74C165.31,168.18,165.04,166.02,164.34,166.02z"/>
		<path class="st0" d="M191.14,192.68c0.14-1.54,3.21-2.86,4.26-2.86c0.21,0,0.56,0.07,0.56,0.35c0,0.07-1.05,4.61-1.05,9.98
			c0,2.93,1.33,6.63,2.51,10.4c1.96-0.28,3.98-0.35,5.93-0.35c17.45,0,37.42,8.17,52.5,8.17c4.61,0,8.8-0.7,12.29-2.72
			c1.26-0.7,1.88-0.98,2.09-0.98c0.07,0,0.14,0,0.14,0.07c0,0.35-1.81,2.02-3,3.21c-2.72,2.65-6.21,8.24-18.43,8.24
			c-16.41,0-34.28-11.8-48.94-11.8c-0.56,0-1.05,0-1.54,0.07c0.35,1.4,0.56,2.86,0.56,4.12c0,4.19-3,6.35-5.86,6.35
			c-2.58,0-5.1-1.82-5.1-5.65c0-4.12,2.23-6.35,5.31-7.61c-0.84-3.84-1.96-7.61-1.96-8.73c-0.77,1.47-1.81,4.96-3.21,8.66
			c-3.49,9.08-8.1,13.4-11.8,13.4c-3.63,0-6.35-4.19-6.35-12.15c0-6.07,1.05-12.77,1.75-15.78c0,0,0.28-0.91,0.84-0.91
			c1.19,0,2.37-0.07,4.26-0.49c0.84,0,0.84,0.56,0.84,0.56c-1.81,10.12-2.79,14.17-2.79,21.15c0,3.14,0.91,4.54,2.3,4.54
			c2.37,0,6.14-4.26,9.15-11.38C189.39,203.43,190.86,195.62,191.14,192.68z M181.29,180.54c0,2.65-2.02,6-4.47,6
			c-2.23,0-3.21-1.68-3.21-3.56c0-2.58,1.81-5.65,4.61-5.65C180.46,177.33,181.29,178.79,181.29,180.54z M189.67,168.6
			c1.68,0,2.44,1.82,2.44,4.61c0,3.77-1.47,9.21-4.47,13.82l-1.05-0.7c0.49-0.98,1.26-4.05,1.26-7.33c0-2.86-0.56-5.86-2.44-7.82
			C187.16,169.37,188.62,168.6,189.67,168.6z M191.21,220.82c1.33,0,2.86-1.12,2.86-3.63c0-0.56-0.07-1.19-0.14-1.81
			c-2.86,1.05-4.47,2.72-4.47,3.91C189.46,220.26,190.3,220.82,191.21,220.82z"/>
	</g>
	<g>
		<path class="st0" d="M201.44,351.71l0.11,0.73l-4.94,0.76l0.83,5.38l4.94-0.76l0.11,0.73l-4.94,0.76l0.94,6.12l-0.73,0.11
			l-1.99-12.97L201.44,351.71z"/>
		<path class="st0" d="M210.37,349.98l0.73-0.15l1.85,9.24c0.06,1.01-0.18,1.93-0.73,2.75c-0.66,0.98-1.56,1.59-2.72,1.82
			c-1.17,0.23-2.24,0.02-3.22-0.63s-1.59-1.56-1.82-2.72l-1.75-8.78l0.73-0.15l1.75,8.78c0.19,0.95,0.69,1.7,1.51,2.24
			c0.81,0.54,1.7,0.72,2.66,0.53c0.96-0.19,1.71-0.69,2.25-1.51c0.54-0.81,0.72-1.7,0.53-2.65L210.37,349.98z"/>
		<path class="st0" d="M219.25,347.81l0.18,0.72l-5.64,1.42l1.33,5.28l5.64-1.42l0.18,0.72l-5.64,1.42l1.33,5.28l5.64-1.42
			l0.18,0.72l-6.36,1.6l-3.2-12.72L219.25,347.81z"/>
		<path class="st0" d="M221.88,347.1l11.94,9.1l-3.61-11.67l0.71-0.22l3.87,12.53l-1.09,0.34l-11.66-8.89l3.52,11.4l-0.71,0.22
			l-3.87-12.53L221.88,347.1z"/>
		<path class="st0" d="M235.98,343.23l4.26,11.62l-0.69,0.25l-4.26-11.62l-3.12,1.14l-0.26-0.7l6.92-2.54l0.26,0.7L235.98,343.23z"
			/>
		<path class="st0" d="M245.94,338.46l0.29,0.69l-5.37,2.23l2.09,5.03l5.37-2.23l0.29,0.69l-5.37,2.23l2.09,5.03l5.37-2.23
			l0.28,0.69l-6.06,2.51l-5.03-12.12L245.94,338.46z"/>
		<path class="st0" d="M253.96,334.73c1.93-0.96,3.7-1.18,5.3-0.64c1.76,0.59,3.06,1.71,3.89,3.36c0.84,1.66,0.97,3.37,0.39,5.13
			c-0.53,1.59-1.75,2.88-3.67,3.87l-2.17,1.09l-5.91-11.71L253.96,334.73z M252.8,336.18l5.22,10.35l1.5-0.76
			c1.68-0.85,2.78-1.99,3.28-3.42c0.51-1.56,0.4-3.08-0.34-4.55c-0.74-1.47-1.89-2.46-3.46-2.98c-1.44-0.44-3.01-0.24-4.69,0.61
			L252.8,336.18z"/>
		<path class="st0" d="M267.08,327.67l0.37,0.65l-5.06,2.87l2.69,4.74l5.06-2.87l0.37,0.65l-5.06,2.87l2.69,4.74l5.06-2.87
			l0.37,0.65l-5.7,3.24l-6.48-11.41L267.08,327.67z"/>
		<path class="st0" d="M278.78,327.22c-0.95,0.26-1.8,0.31-2.55,0.16c-0.75-0.15-1.34-0.55-1.76-1.2c-0.42-0.63-0.55-1.32-0.4-2.07
			c0.15-0.75,0.55-1.34,1.19-1.77c0.63-0.42,1.33-0.55,2.09-0.4c0.41,0.08,0.76,0.24,1.06,0.47l-0.41,0.59
			c-0.23-0.17-0.5-0.28-0.81-0.35c-0.55-0.11-1.06-0.01-1.53,0.3c-0.47,0.31-0.76,0.74-0.88,1.29c-0.12,0.55-0.02,1.06,0.3,1.54
			c0.31,0.47,0.74,0.76,1.29,0.88c0.51,0.1,1.12,0.09,1.84-0.01c1.07-0.3,2.09-0.34,3.09-0.14c1.04,0.21,1.86,0.77,2.45,1.66
			c0.59,0.9,0.78,1.87,0.57,2.93c-0.21,1.05-0.77,1.87-1.66,2.46c-0.9,0.59-1.87,0.78-2.92,0.55c-0.85-0.17-1.54-0.55-2.08-1.16
			l0.44-0.59c0.45,0.55,1.05,0.9,1.78,1.05c0.86,0.17,1.65,0.02,2.38-0.46c0.73-0.48,1.18-1.15,1.35-2.01
			c0.18-0.86,0.02-1.65-0.46-2.38c-0.48-0.72-1.15-1.17-2-1.35C280.41,327.05,279.61,327.05,278.78,327.22z"/>
		<path class="st0" d="M289.54,314.49c1.84,0.26,3.32,1.14,4.43,2.62c1.12,1.49,1.54,3.16,1.28,5c-0.26,1.84-1.14,3.32-2.63,4.43
			c-1.49,1.11-3.15,1.54-4.99,1.27s-3.32-1.14-4.43-2.63c-1.11-1.49-1.54-3.15-1.27-4.99c0.27-1.84,1.14-3.32,2.63-4.43
			C286.04,314.65,287.7,314.23,289.54,314.49z M285,316.37c-1.32,0.99-2.09,2.3-2.33,3.93c-0.24,1.64,0.14,3.11,1.13,4.43
			c0.99,1.32,2.3,2.1,3.94,2.34c1.64,0.24,3.11-0.14,4.43-1.12c1.32-0.99,2.1-2.3,2.34-3.94c0.24-1.64-0.14-3.12-1.13-4.44
			c-0.99-1.32-2.3-2.09-3.93-2.33C287.8,315,286.32,315.38,285,316.37z"/>
		<path class="st0" d="M292.87,309.43c1.65-1.39,3.31-2.02,4.99-1.88c1.85,0.15,3.38,0.93,4.58,2.34c1.21,1.42,1.74,3.05,1.6,4.9
			c-0.13,1.67-1.01,3.22-2.65,4.63l-1.85,1.58l-8.52-9.98L292.87,309.43z M292.09,311.11l7.52,8.81l1.28-1.09
			c1.43-1.22,2.22-2.59,2.37-4.1c0.13-1.64-0.34-3.09-1.42-4.34c-1.07-1.25-2.42-1.94-4.07-2.08c-1.51-0.09-2.98,0.48-4.41,1.71
			L292.09,311.11z"/>
		<path class="st0" d="M302.46,300.85l12.49,6.23l-0.56,0.54l-5.5-2.74L305.6,308l2.43,5.65l-0.57,0.54l-5.55-12.82L302.46,300.85z
			 M308.19,304.53l-5.24-2.61l2.34,5.37L308.19,304.53z"/>
		<path class="st0" d="M313.51,298.06c-0.87,0.46-1.68,0.71-2.45,0.72c-0.76,0.02-1.43-0.24-1.99-0.77
			c-0.55-0.52-0.83-1.16-0.85-1.93s0.23-1.43,0.77-1.99c0.52-0.55,1.17-0.84,1.95-0.86c0.42-0.01,0.79,0.06,1.13,0.22l-0.27,0.66
			c-0.26-0.11-0.55-0.16-0.86-0.16c-0.56,0.01-1.03,0.22-1.42,0.63c-0.39,0.41-0.58,0.89-0.56,1.45c0.01,0.56,0.22,1.04,0.64,1.43
			c0.41,0.39,0.89,0.58,1.46,0.57c0.52-0.02,1.12-0.16,1.79-0.43c0.97-0.53,1.96-0.8,2.98-0.83c1.07-0.03,1.99,0.33,2.76,1.07
			c0.78,0.74,1.18,1.65,1.21,2.72s-0.33,2-1.06,2.77c-0.74,0.78-1.65,1.18-2.73,1.2c-0.86,0.03-1.62-0.2-2.29-0.66l0.3-0.68
			c0.57,0.44,1.22,0.64,1.97,0.62c0.88-0.02,1.61-0.35,2.21-0.98c0.6-0.63,0.89-1.38,0.87-2.26c-0.02-0.87-0.35-1.61-0.98-2.21
			c-0.63-0.6-1.38-0.88-2.25-0.86C315.05,297.53,314.28,297.71,313.51,298.06z"/>
		<path class="st0" d="M327.88,288.54c-0.07,0.03-0.14,0.06-0.21,0.09c-0.28,0.11-0.7,0.18-1.27,0.23
			c-0.35,0.05-0.59,0.09-0.71,0.14c-0.12,0.05-0.22,0.12-0.3,0.22c-0.04,0.05-0.08,0.11-0.12,0.17c-0.08,0.19-0.09,0.38-0.02,0.56
			c0.05,0.13,0.12,0.23,0.21,0.31c0.05,0.04,0.11,0.08,0.18,0.11c0.19,0.08,0.37,0.09,0.54,0.02c0.11-0.05,0.22-0.14,0.34-0.28
			c0.06-0.08,0.13-0.17,0.19-0.28l0.48,0.49c-0.06,0.13-0.13,0.25-0.22,0.35c-0.14,0.17-0.32,0.3-0.54,0.39
			c-0.35,0.14-0.71,0.12-1.07-0.04c-0.13-0.06-0.24-0.13-0.34-0.21c-0.19-0.15-0.33-0.35-0.42-0.6c-0.14-0.38-0.13-0.75,0.04-1.11
			c0.06-0.13,0.13-0.24,0.21-0.34c0.15-0.19,0.35-0.32,0.59-0.41c0.23-0.09,0.6-0.16,1.11-0.19c0.42-0.06,0.71-0.12,0.87-0.18
			c0.18-0.07,0.32-0.17,0.43-0.31c0.06-0.08,0.11-0.16,0.15-0.26c0.12-0.27,0.13-0.54,0.02-0.82c-0.07-0.18-0.17-0.32-0.31-0.43
			c-0.07-0.06-0.16-0.11-0.25-0.15c-0.26-0.12-0.53-0.13-0.81-0.03c-0.17,0.06-0.31,0.17-0.43,0.32c-0.09,0.11-0.16,0.23-0.23,0.38
			l-0.57-0.46c0.06-0.15,0.14-0.28,0.24-0.39c0.18-0.22,0.43-0.39,0.73-0.51c0.46-0.18,0.91-0.17,1.35,0.03
			c0.16,0.07,0.29,0.16,0.41,0.26c0.23,0.19,0.4,0.43,0.51,0.72c0.18,0.46,0.16,0.92-0.04,1.38c-0.06,0.13-0.13,0.25-0.21,0.36
			c0.34,0.51,0.54,1.1,0.61,1.76c0.11,1.08-0.17,2.03-0.85,2.85c-0.68,0.83-1.55,1.29-2.62,1.4c-1.07,0.1-2.02-0.18-2.85-0.87
			c-0.83-0.68-1.31-1.56-1.45-2.65c-0.1-0.75,0-1.53,0.31-2.34c-0.38,0.2-0.87,0.32-1.47,0.36c-0.6,0.04-1.2-0.19-1.8-0.68
			c-0.58-0.48-0.91-1.1-0.99-1.86s0.13-1.44,0.61-2.03c0.49-0.59,1.11-0.93,1.88-1c0.42-0.05,0.8,0,1.15,0.14l-0.22,0.67
			c-0.27-0.09-0.56-0.12-0.87-0.09c-0.56,0.06-1.02,0.31-1.38,0.74c-0.36,0.44-0.51,0.93-0.46,1.49s0.3,1.02,0.74,1.38
			c0.43,0.36,0.93,0.52,1.5,0.48c0.56-0.04,1-0.14,1.3-0.32c0.3-0.17,0.61-0.45,0.93-0.82l0.54,0.44l-0.36,0.46
			c-0.58,1.07-0.81,2.05-0.69,2.93c0.13,0.88,0.52,1.59,1.19,2.14c0.67,0.55,1.45,0.79,2.31,0.71c0.87-0.08,1.58-0.46,2.14-1.14
			c0.55-0.67,0.78-1.44,0.7-2.31C328.27,289.4,328.13,288.95,327.88,288.54z"/>
		<path class="st0" d="M331.11,278.62l5.06,3.56l-0.43,0.61l-10.74-7.54l0.43-0.61l5.06,3.56l3.86-5.5l-5.06-3.56l0.43-0.61
			l10.74,7.54l-0.43,0.61l-5.06-3.56L331.11,278.62z"/>
		<path class="st0" d="M334.17,261.58l0.63,0.4l-3.12,4.91l4.6,2.92l3.12-4.91l0.63,0.4l-3.12,4.91l4.6,2.92l3.12-4.91l0.63,0.4
			l-3.51,5.54l-11.08-7.03L334.17,261.58z"/>
		<path class="st0" d="M346.47,266.55l-11.35-6.58l0.37-0.64l10.71,6.21l2.51-4.33l0.64,0.37L346.47,266.55z"/>
		<path class="st0" d="M340.75,249.85l13.83,1.85l-0.36,0.69l-6.09-0.81l-2.1,4.02l4.13,4.56l-0.36,0.7l-9.4-10.34L340.75,249.85z
			 M347.36,251.48l-5.8-0.78l3.95,4.32L347.36,251.48z"/>
		<path class="st0" d="M344.29,242.71c0.91-1.96,2.15-3.23,3.72-3.82c1.74-0.65,3.46-0.59,5.14,0.18c1.69,0.77,2.87,2.02,3.52,3.76
			c0.59,1.57,0.44,3.34-0.44,5.31l-1.01,2.21l-11.94-5.43L344.29,242.71z M344.29,244.56l10.55,4.8l0.7-1.53
			c0.78-1.72,0.92-3.29,0.41-4.71c-0.58-1.54-1.62-2.65-3.12-3.34c-1.5-0.68-3.02-0.73-4.56-0.16c-1.4,0.56-2.49,1.7-3.28,3.41
			L344.29,244.56z"/>
		<path class="st0" d="M353.29,225.49c1.69-0.76,3.41-0.82,5.14-0.16c1.74,0.66,2.99,1.84,3.76,3.53c0.76,1.69,0.82,3.41,0.16,5.15
			c-0.66,1.73-1.83,2.98-3.53,3.75s-3.41,0.82-5.15,0.16c-1.74-0.66-2.98-1.83-3.75-3.53c-0.76-1.69-0.82-3.41-0.16-5.14
			C350.42,227.51,351.6,226.25,353.29,225.49z M350.47,229.51c-0.58,1.54-0.53,3.06,0.14,4.57s1.79,2.55,3.33,3.13
			c1.54,0.58,3.07,0.54,4.58-0.14c1.51-0.68,2.55-1.79,3.14-3.33c0.58-1.54,0.54-3.07-0.14-4.58c-0.68-1.51-1.79-2.55-3.33-3.14
			c-1.54-0.58-3.06-0.53-4.57,0.15C352.1,226.86,351.05,227.97,350.47,229.51z"/>
		<path class="st0" d="M359.3,220.1c-0.57,0.8-1.2,1.38-1.88,1.73c-0.68,0.36-1.39,0.42-2.12,0.19c-0.72-0.22-1.26-0.68-1.62-1.36
			c-0.36-0.68-0.42-1.39-0.19-2.13c0.23-0.73,0.68-1.27,1.37-1.63c0.37-0.2,0.74-0.3,1.12-0.3l0.05,0.71
			c-0.28,0.01-0.56,0.1-0.84,0.24c-0.5,0.26-0.83,0.66-1,1.2c-0.17,0.54-0.12,1.06,0.14,1.55s0.66,0.83,1.2,1
			c0.54,0.17,1.06,0.12,1.56-0.13c0.46-0.25,0.93-0.64,1.42-1.17c0.64-0.9,1.41-1.59,2.31-2.06c0.95-0.5,1.93-0.58,2.95-0.26
			c1.03,0.32,1.79,0.96,2.29,1.91s0.59,1.94,0.27,2.96c-0.32,1.03-0.96,1.79-1.92,2.28c-0.76,0.4-1.54,0.54-2.35,0.41l-0.03-0.74
			c0.7,0.14,1.38,0.04,2.04-0.31c0.78-0.41,1.29-1.03,1.55-1.86c0.26-0.83,0.19-1.64-0.22-2.41c-0.41-0.77-1.02-1.29-1.86-1.55
			c-0.83-0.26-1.63-0.18-2.4,0.22C360.45,218.94,359.84,219.45,359.3,220.1z"/>
	</g>
</g>
<g>
	<path class="st0" d="M212.7,182.18v8.85h-0.5v-8.31l-3.42,4.49l-3.43-4.49v8.31h-0.5v-8.85h0.73l3.21,4.19l3.2-4.19H212.7z"/>
	<path class="st0" d="M215.21,190.26c0.1,0.1,0.15,0.21,0.15,0.35c0,0.14-0.05,0.25-0.15,0.35s-0.21,0.14-0.35,0.14
		c-0.14,0-0.25-0.05-0.35-0.14c-0.1-0.1-0.15-0.21-0.15-0.35c0-0.14,0.05-0.25,0.15-0.35c0.1-0.1,0.22-0.14,0.35-0.14
		C214.99,190.12,215.11,190.16,215.21,190.26z"/>
	<path class="st0" d="M219.52,187.96h-1.65v3.07h-0.5v-8.85h2.32c0.68,0.09,1.25,0.37,1.72,0.84c0.56,0.57,0.84,1.25,0.84,2.04
		c0,0.8-0.28,1.48-0.84,2.05c-0.39,0.39-0.84,0.65-1.35,0.77l2.04,3.15h-0.61L219.52,187.96z M217.86,182.69v4.77h1.5
		c0.66,0,1.22-0.23,1.68-0.7c0.47-0.46,0.7-1.03,0.7-1.69c0-0.66-0.23-1.22-0.7-1.68c-0.47-0.46-1.03-0.7-1.68-0.7H217.86z"/>
	<path class="st0" d="M224.12,190.26c0.1,0.1,0.15,0.21,0.15,0.35c0,0.14-0.05,0.25-0.15,0.35s-0.21,0.14-0.35,0.14
		c-0.14,0-0.25-0.05-0.35-0.14c-0.1-0.1-0.15-0.21-0.15-0.35c0-0.14,0.05-0.25,0.15-0.35c0.1-0.1,0.22-0.14,0.35-0.14
		C223.9,190.12,224.02,190.16,224.12,190.26z"/>
</g>
</svg>
