<?xml version="1.0" encoding="utf-8"?>
<!-- Generator: Adobe Illustrator 25.2.1, SVG Export Plug-In . SVG Version: 6.00 Build 0)  -->
<svg version="1.1" xmlns="http://www.w3.org/2000/svg" xmlns:xlink="http://www.w3.org/1999/xlink" x="0px" y="0px"
	 viewBox="0 0 595.28 307.91" style="enable-background:new 0 0 595.28 307.91;" xml:space="preserve">
<style type="text/css">
	.st0{fill:#6CC048;}
	.st1{fill:#16A468;}
	.st2{font-family:'BadaBoomBB';}
	.st3{font-size:23.625px;}
	.st4{font-size:78.655px;}
	.st5{font-family:'MaiandraGD-Regular';}
	.st6{fill:url(#SVGID_1_);}
	.st7{fill:url(#SVGID_2_);}
	.st8{fill:url(#SVGID_3_);}
	.st9{fill:url(#SVGID_4_);}
	.st10{fill:url(#SVGID_5_);}
	.st11{fill:url(#SVGID_6_);}
	.st12{fill:url(#SVGID_7_);}
	.st13{fill:url(#SVGID_8_);}
	.st14{fill:url(#SVGID_9_);}
	.st15{fill:url(#SVGID_10_);}
</style>
<g id="Capa_5">
</g>
<g id="Capa_6">
	<g>
		<g>
			<g>
				<g>
					<path class="st0" d="M550.77,121.38l-15.52,7.28l-2.78-5.95l0.74-5.15l17.37,2.48c0.44,0.08,0.55,0.44,0.57,0.6
						C551.18,120.78,551.18,121.16,550.77,121.38z"/>
					<path class="st0" d="M540.98,169.13c0.38,0.22,0.35,0.6,0.33,0.74c-0.03,0.16-0.14,0.49-0.57,0.57l-17.95,2.4l-0.87-6.49
						l3.55-6.16L540.98,169.13z"/>
					<path class="st0" d="M505.58,142.54c-1.17,0.55-1.94,1.66-1.99,2.95c-0.05,1.28,0.6,2.48,1.72,3.11l20.15,11.59l-3.55,6.16
						l-44.84-20.62l55.39-23.02l2.78,5.95L505.58,142.54z"/>
					<path class="st0" d="M490.94,177.1c-1.39,0.19-2.48,1.15-2.84,2.48c-0.38,1.36,0.05,2.73,1.15,3.6l49.15,39.08
						c0.38,0.3,0.27,0.68,0.22,0.82c-0.08,0.14-0.27,0.46-0.74,0.41l-26.7-4.04l0.63-4.09l0.65-1.06c0.27-0.41,0.44-0.68-0.65-1.8
						l0.08-0.14c-0.05-0.03-0.16-0.08-0.33-0.11c-2.29-2.21-8.81-7.28-26.18-20.73c-9.79-7.61-19.61-15.19-24.19-18.74l60.74-6.44
						l0.87,6.49L490.94,177.1z"/>
					<path class="st0" d="M488.29,111.1l44.92,6.46l-0.74,5.15l-74.51-9.93l61.5-40.91l-1.06-6.57l30.41-4.91
						c0.49-0.08,0.68,0.22,0.76,0.41c0.05,0.16,0.16,0.55-0.25,0.85l-62.48,43.25c-1.17,0.79-1.72,2.21-1.39,3.6
						C485.78,109.87,486.9,110.91,488.29,111.1z"/>
					<path class="st0" d="M519.46,71.88L424.91,88V54.56l-2.89-5.84l13.42-6.65c0.33-0.16,0.57-0.03,0.68,0.03
						c0.11,0.05,0.33,0.25,0.33,0.6v31.85c0,1.01,0.44,1.96,1.2,2.62c0.76,0.65,1.77,0.93,2.78,0.76l77.97-12.63L519.46,71.88z"/>
					<path class="st0" d="M430.56,235.84l-71.64-23.67c-0.79-0.25-1.66-0.22-2.43,0.11l-2.05-5.45l5.07-1.91l60.82,18.95l-4.2-27.74
						c27.27,5.26,92.21,17.92,94.53,18.65l1.15,0.57l-0.63,4.09l-76.72-11.62c-1.01-0.14-2.05,0.16-2.81,0.85
						c-0.76,0.68-1.17,1.66-1.15,2.67l0.95,23.78c0.03,0.33-0.16,0.52-0.27,0.6S430.86,235.92,430.56,235.84z"/>
					<path class="st0" d="M227.76,66.32l31.61-23.92c0.22-0.16,0.49-0.19,0.74-0.08l51.71,25.31c1.23,0.6,2.7,0.41,3.76-0.52
						l30.11-26.48c0.19-0.16,0.41-0.19,0.52-0.19c0.11,0.03,0.33,0.05,0.46,0.25l25.47,29.92c1.01,1.2,2.73,1.55,4.12,0.85
						l45.76-22.72l2.89,5.84l-53.92,30.16L345.68,51.7l-28.25,28.25l-56.62-27.76l-32.18,23.07l-5.54-1.36l1.72-7.01
						C225.82,67.16,226.91,66.94,227.76,66.32z"/>
					<path class="st0" d="M174.14,212.06l-29.07,4.31l-1.01-6.85l60.85-10.06l-47.26,63.38l117.68-56.86l43.01,14.1l0.44,0.16
						l35.67-13.42l2.05,5.45l-39.82,17.24c-0.19,0.08-0.35,0.08-0.55,0l-38.75-15.16c-0.9-0.33-1.88-0.3-2.73,0.11l-134.56,64.31
						c-0.41,0.22-0.71-0.05-0.82-0.16c-0.11-0.11-0.3-0.44-0.05-0.85l38.32-60.49c0.74-1.12,0.74-2.54,0-3.68
						c-0.65-0.98-1.72-1.55-2.86-1.55C174.49,212.03,174.3,212.03,174.14,212.06z"/>
					<path class="st0" d="M138,191.14l-56.26-0.82l0.11-6.65l81.38-0.74l-19.17,26.59l1.01,6.85l-17.07,2.51
						c-0.38,0.05-0.6-0.19-0.68-0.3c-0.05-0.11-0.22-0.41,0-0.76l13.53-21.44c0.68-1.04,0.71-2.35,0.11-3.44
						C140.35,191.82,139.26,191.17,138,191.14z"/>
					<path class="st0" d="M73.45,131.36l70.74-12.33l-28.8-27.38l54.52,1.42L144,54.37l79.09,19.53l5.54,1.36l32.18-23.07
						l56.62,27.76l28.25-28.25l25.31,33.03l53.92-30.16V88l94.55-16.12l-61.5,40.91l74.51,9.93l-55.39,23.02l44.84,20.62
						l-60.74,6.44c4.58,3.55,14.4,11.13,24.19,18.74c17.37,13.45,23.89,18.52,26.18,20.73c0.16,0.03,0.27,0.08,0.33,0.11l-0.08,0.14
						c1.09,1.12,0.93,1.39,0.65,1.8l-0.65,1.06l-1.15-0.57c-2.32-0.74-67.25-13.39-94.53-18.65l4.2,27.74l-60.82-18.95l-5.07,1.91
						l-35.67,13.42l-0.44-0.16l-43.01-14.1l-117.68,56.86l47.26-63.38l-60.85,10.06l19.17-26.59l-81.38,0.74l64.58-29.43
						l-29.32-9.19L73.45,131.36z M150,120.78l-65.02,11.35l69.05,21.63l-59.37,27.05l73.91-0.65l-18.44,25.61l61.01-10.12
						l-44.65,59.89l108.63-52.47l43.58,14.29l40.72-15.33l57.55,17.95l-4.12-27.25l1.88,0.35c23.84,4.61,74.02,14.35,91.23,17.95
						c-9.55-7.53-32.67-25.45-49.15-38.15l-2.67-2.07l57.63-6.11l-41.51-19.06l51.82-21.55l-71.67-9.57l56.84-37.77l-85.06,14.51
						V59.23l-51.93,29.02l-24.85-32.43l-27.44,27.46l-56.89-27.93L229.2,78.21l-79.01-19.5l24.93,37.23l-52.72-1.36L150,120.78z"/>
					<path class="st0" d="M81.85,183.67l-0.11,6.65l-25.77-0.38c-0.49-0.03-0.65-0.38-0.68-0.55s-0.08-0.55,0.35-0.79l59.97-30.57
						c1.25-0.63,1.99-1.96,1.85-3.35c-0.14-1.42-1.09-2.56-2.43-2.97l2.07-6.65l29.32,9.19L81.85,183.67z"/>
					<path class="st0" d="M73.45,131.36l43.66,13.69l-2.07,6.65l-70.42-20.78c-0.49-0.14-0.52-0.52-0.52-0.68
						c0.03-0.16,0.08-0.55,0.57-0.65l72.79-14.73c1.28-0.25,2.29-1.2,2.62-2.45c0.35-1.25-0.05-2.56-1.01-3.44L90.82,83.66
						c-0.33-0.3-0.25-0.63-0.19-0.76c0.05-0.14,0.25-0.55,0.65-0.44l53.56,1.55c1.25,0,2.45-0.63,3.08-1.75
						c0.63-1.12,0.57-2.48-0.14-3.55l-25.23-38.35c-0.25-0.35-0.08-0.68,0.03-0.79c0.08-0.11,0.3-0.38,0.74-0.27l101.48,27.57
						l-1.72,7.01L144,54.37l25.91,38.7l-54.52-1.42l28.8,27.38L73.45,131.36z"/>
					<path class="st0" d="M115.61,158.03l-59.97,30.57c-0.44,0.25-0.38,0.63-0.35,0.79s0.19,0.52,0.68,0.55l25.77,0.38l56.26,0.82
						c1.25,0.03,2.35,0.68,2.95,1.8c0.6,1.09,0.57,2.4-0.11,3.44l-13.53,21.44c-0.22,0.35-0.05,0.65,0,0.76
						c0.08,0.11,0.3,0.35,0.68,0.3l17.07-2.51l29.07-4.31c0.16-0.03,0.35-0.03,0.52-0.03c1.15,0,2.21,0.57,2.86,1.55
						c0.74,1.15,0.74,2.56,0,3.68l-38.32,60.49c-0.25,0.41-0.05,0.74,0.05,0.85c0.11,0.11,0.41,0.38,0.82,0.16l134.56-64.31
						c0.85-0.41,1.83-0.44,2.73-0.11l38.75,15.16c0.19,0.08,0.35,0.08,0.55,0l39.82-17.24c0.76-0.33,1.64-0.35,2.43-0.11
						l71.64,23.67c0.3,0.08,0.52-0.03,0.63-0.11s0.3-0.27,0.27-0.6l-0.95-23.78c-0.03-1.01,0.38-1.99,1.15-2.67
						c0.76-0.68,1.8-0.98,2.81-0.85l76.72,11.62l26.7,4.04c0.46,0.05,0.65-0.27,0.74-0.41c0.05-0.14,0.16-0.52-0.22-0.82
						l-49.15-39.08c-1.09-0.87-1.53-2.24-1.15-3.6c0.35-1.34,1.45-2.29,2.84-2.48l31.85-4.25l17.95-2.4
						c0.44-0.08,0.55-0.41,0.57-0.57c0.03-0.14,0.05-0.52-0.33-0.74l-15.52-8.95l-20.15-11.59c-1.12-0.63-1.77-1.83-1.72-3.11
						c0.05-1.28,0.82-2.4,1.99-2.95l29.67-13.88l15.52-7.28c0.41-0.22,0.41-0.6,0.38-0.74c-0.03-0.16-0.14-0.52-0.57-0.6
						l-17.37-2.48l-44.92-6.46c-1.39-0.19-2.51-1.23-2.84-2.59c-0.33-1.39,0.22-2.81,1.39-3.6l62.48-43.25
						c0.41-0.3,0.3-0.68,0.25-0.85c-0.08-0.19-0.27-0.49-0.76-0.41l-30.41,4.91l-77.97,12.63c-1.01,0.16-2.02-0.11-2.78-0.76
						c-0.76-0.65-1.2-1.61-1.2-2.62V42.7c0-0.35-0.22-0.55-0.33-0.6c-0.11-0.05-0.35-0.19-0.68-0.03l-13.42,6.65l-45.76,22.72
						c-1.39,0.71-3.11,0.35-4.12-0.85l-25.47-29.92c-0.14-0.19-0.35-0.22-0.46-0.25c-0.11,0-0.33,0.03-0.52,0.19l-30.11,26.48
						c-1.06,0.93-2.54,1.12-3.76,0.52L260.1,42.32c-0.25-0.11-0.52-0.08-0.74,0.08l-31.61,23.92c-0.85,0.63-1.94,0.85-2.95,0.57
						L123.33,39.32c-0.44-0.11-0.65,0.16-0.74,0.27c-0.11,0.11-0.27,0.44-0.03,0.79l25.23,38.35c0.71,1.06,0.76,2.43,0.14,3.55
						c-0.63,1.12-1.83,1.75-3.08,1.75l-53.56-1.55c-0.41-0.11-0.6,0.3-0.65,0.44c-0.05,0.14-0.14,0.46,0.19,0.76l28.25,25.31
						c0.95,0.87,1.36,2.18,1.01,3.44c-0.33,1.25-1.34,2.21-2.62,2.45l-72.79,14.73c-0.49,0.11-0.55,0.49-0.57,0.65
						c0,0.16,0.03,0.55,0.52,0.68l70.42,20.78c1.34,0.41,2.29,1.55,2.43,2.97C117.6,156.07,116.87,157.41,115.61,158.03z
						 M41.38,130.11c0.08-1.58,1.17-2.86,2.75-3.19l72.79-14.73c0.38-0.08,0.49-0.35,0.55-0.49c0.03-0.14,0.08-0.44-0.22-0.71
						L88.99,85.68c-1.09-0.95-1.45-2.45-0.9-3.82c0.55-1.34,1.83-2.1,3.27-2.13l53.56,1.55c0.35,0.08,0.57-0.25,0.63-0.35
						c0.05-0.11,0.16-0.38-0.03-0.71l-25.25-38.35c-0.79-1.2-0.74-2.73,0.11-3.9c0.82-1.15,2.26-1.66,3.65-1.28l101.48,27.55
						c0.19,0.05,0.41,0.03,0.6-0.11l31.61-23.92c1.04-0.79,2.4-0.93,3.57-0.35l51.71,25.31c0.25,0.11,0.55,0.08,0.76-0.11
						l30.11-26.48c0.71-0.63,1.61-0.93,2.51-0.85c0.93,0.05,1.77,0.49,2.37,1.2l25.45,29.89c0.22,0.25,0.55,0.33,0.85,0.19
						l59.18-29.4c1.06-0.52,2.32-0.46,3.33,0.16c1.01,0.63,1.61,1.72,1.61,2.92v31.85c0,0.27,0.16,0.46,0.25,0.55
						c0.08,0.05,0.3,0.19,0.57,0.14L548.37,57.7c1.64-0.25,3.11,0.57,3.74,2.1c0.6,1.53,0.11,3.16-1.23,4.09l-62.48,43.25
						c-0.35,0.25-0.33,0.6-0.3,0.74c0.05,0.14,0.16,0.46,0.57,0.52l62.29,8.95c1.5,0.22,2.67,1.39,2.89,2.89
						c0.22,1.5-0.55,2.95-1.94,3.6L506.73,145c-0.35,0.16-0.41,0.49-0.41,0.6c0,0.14,0.03,0.44,0.35,0.63l35.67,20.56
						c1.28,0.74,1.94,2.15,1.64,3.63c-0.27,1.45-1.42,2.51-2.89,2.73l-49.8,6.65c-0.41,0.08-0.55,0.38-0.57,0.52
						c-0.03,0.14-0.08,0.46,0.25,0.74l49.12,39.05c1.23,0.98,1.64,2.62,1.01,4.06c-0.63,1.45-2.1,2.24-3.63,2.02l-103.42-15.65
						c-0.27-0.05-0.49,0.08-0.57,0.16c-0.11,0.08-0.25,0.27-0.25,0.55l0.95,23.78c0.05,1.15-0.46,2.21-1.36,2.89
						c-0.9,0.65-2.07,0.85-3.14,0.49l-71.64-23.65c-0.16-0.05-0.33-0.05-0.49,0.03L317.73,232c-0.82,0.38-1.75,0.38-2.59,0.05
						l-38.78-15.14c-0.16-0.08-0.35-0.08-0.55,0l-134.56,64.31c-0.46,0.25-0.98,0.35-1.47,0.35c-0.95,0-1.88-0.41-2.56-1.17
						c-1.01-1.15-1.15-2.78-0.33-4.09l38.35-60.49c0.22-0.35,0.05-0.65,0-0.76c-0.08-0.11-0.27-0.35-0.68-0.3l-46.15,6.82
						c-1.34,0.19-2.62-0.38-3.35-1.53c-0.76-1.12-0.76-2.54-0.03-3.68l13.5-21.44c0.22-0.3,0.08-0.6,0.03-0.71s-0.22-0.35-0.6-0.35
						l-82.04-1.2c-1.61-0.03-2.92-1.09-3.27-2.67c-0.38-1.55,0.35-3.08,1.77-3.82l59.97-30.57c0.38-0.19,0.38-0.55,0.35-0.68
						c0-0.14-0.08-0.49-0.49-0.6l-70.42-20.78C42.3,133.11,41.32,131.72,41.38,130.11z"/>
				</g>
			</g>
		</g>
	</g>
</g>
<g id="Capa_7">
	<g>
		<path class="st1" d="M139.77,281.57c-0.95,0-1.88-0.4-2.55-1.16c-1.02-1.15-1.15-2.8-0.33-4.1l38.33-60.49
			c0.22-0.34,0.07-0.64,0-0.75c-0.07-0.11-0.27-0.35-0.68-0.31l-46.13,6.81c-1.35,0.2-2.63-0.38-3.37-1.51
			c-0.74-1.13-0.75-2.55-0.03-3.7l13.52-21.43c0.2-0.31,0.08-0.59,0.02-0.7c-0.06-0.11-0.23-0.36-0.6-0.36l-82.04-1.21
			c-1.6-0.02-2.92-1.09-3.28-2.65c-0.36-1.56,0.35-3.09,1.78-3.82l59.96-30.58c0.38-0.19,0.39-0.54,0.38-0.68
			c-0.01-0.14-0.09-0.48-0.5-0.6l-70.42-20.77c-1.54-0.45-2.52-1.83-2.45-3.43c0.07-1.6,1.17-2.89,2.74-3.2l72.8-14.72
			c0.38-0.08,0.5-0.37,0.53-0.5c0.03-0.13,0.08-0.44-0.21-0.7L88.99,85.69c-1.08-0.97-1.43-2.47-0.89-3.82
			c0.54-1.35,1.83-2.12,3.28-2.15l53.55,1.57c0.36,0.08,0.56-0.24,0.63-0.35c0.06-0.11,0.18-0.4-0.03-0.72l-25.24-38.34
			c-0.79-1.2-0.76-2.73,0.09-3.89c0.84-1.16,2.28-1.67,3.67-1.29l101.47,27.55c0.21,0.06,0.43,0.01,0.6-0.12l31.61-23.93
			c1.03-0.78,2.4-0.92,3.57-0.35L313,65.17c0.26,0.12,0.55,0.09,0.76-0.1l30.13-26.49c0.7-0.61,1.59-0.91,2.51-0.84
			c0.92,0.07,1.76,0.49,2.35,1.2l25.46,29.91c0.21,0.24,0.55,0.31,0.84,0.17l59.18-29.38c1.06-0.53,2.31-0.47,3.33,0.16
			c1.01,0.63,1.62,1.72,1.62,2.91v31.87c0,0.28,0.15,0.45,0.25,0.53c0.09,0.08,0.29,0.21,0.56,0.16l108.4-17.54
			c1.62-0.26,3.11,0.58,3.72,2.1c0.61,1.52,0.12,3.16-1.23,4.09l-62.48,43.25c-0.35,0.24-0.31,0.59-0.28,0.73
			c0.03,0.14,0.15,0.47,0.58,0.53l62.27,8.95c1.51,0.22,2.67,1.38,2.9,2.88c0.22,1.51-0.55,2.95-1.93,3.6l-45.2,21.17
			c-0.34,0.16-0.39,0.47-0.4,0.6c-0.01,0.13,0.02,0.44,0.35,0.63l35.67,20.54c1.29,0.75,1.94,2.17,1.65,3.63
			c-0.29,1.46-1.43,2.53-2.9,2.73l-49.79,6.68c-0.41,0.06-0.54,0.37-0.58,0.51s-0.09,0.47,0.24,0.73l49.14,39.08
			c1.23,0.98,1.64,2.6,1.01,4.05c-0.63,1.44-2.1,2.25-3.65,2.02l-103.42-15.65c-0.27-0.04-0.47,0.09-0.57,0.17
			c-0.09,0.08-0.24,0.26-0.23,0.55l0.95,23.79c0.04,1.12-0.47,2.19-1.36,2.87c-0.89,0.68-2.07,0.87-3.13,0.51l-71.64-23.66
			c-0.16-0.05-0.34-0.04-0.49,0.02l-39.82,17.22c-0.83,0.36-1.76,0.38-2.6,0.05l-38.77-15.15c-0.17-0.07-0.38-0.06-0.55,0.02
			l-134.56,64.31C140.78,281.46,140.27,281.57,139.77,281.57z M174.66,212.03c1.15,0,2.21,0.57,2.85,1.56
			c0.74,1.14,0.75,2.55,0.02,3.7l-38.33,60.49c-0.25,0.4-0.04,0.71,0.07,0.83c0.11,0.12,0.39,0.38,0.82,0.17l134.56-64.31
			c0.85-0.41,1.84-0.44,2.72-0.1l38.77,15.15c0.18,0.07,0.36,0.07,0.53-0.01l39.82-17.22c0.77-0.33,1.64-0.37,2.43-0.11l71.64,23.66
			c0.3,0.1,0.53-0.02,0.63-0.1c0.11-0.08,0.29-0.27,0.28-0.58l-0.95-23.79c-0.04-1.02,0.38-2,1.14-2.68
			c0.76-0.69,1.79-0.99,2.79-0.84l103.42,15.65c0.47,0.05,0.68-0.26,0.74-0.41c0.06-0.15,0.17-0.52-0.21-0.82l-49.14-39.08
			c-1.09-0.87-1.54-2.24-1.17-3.59c0.37-1.34,1.46-2.3,2.84-2.48l49.79-6.68c0.44-0.06,0.56-0.41,0.59-0.55s0.05-0.51-0.34-0.74
			l-35.67-20.54c-1.11-0.64-1.76-1.83-1.71-3.11c0.05-1.28,0.81-2.41,1.97-2.95l45.2-21.17c0.42-0.2,0.41-0.58,0.39-0.73
			c-0.02-0.15-0.13-0.52-0.59-0.58l-62.27-8.95c-1.4-0.2-2.52-1.22-2.84-2.6s0.22-2.79,1.38-3.6l62.48-43.25
			c0.41-0.28,0.31-0.68,0.25-0.83c-0.08-0.19-0.28-0.51-0.75-0.43l-108.4,17.54c-1,0.15-2-0.12-2.76-0.77
			c-0.76-0.65-1.2-1.6-1.2-2.6V42.69c0-0.35-0.23-0.53-0.33-0.59c-0.1-0.06-0.36-0.19-0.67-0.03l-59.18,29.38
			c-1.41,0.7-3.11,0.35-4.13-0.85l-25.46-29.91c-0.16-0.19-0.37-0.24-0.48-0.24c-0.11,0-0.32,0.01-0.51,0.17l-30.13,26.49
			c-1.04,0.91-2.51,1.11-3.76,0.5l-51.71-25.3c-0.24-0.12-0.51-0.09-0.72,0.07l-31.61,23.93c-0.84,0.63-1.95,0.85-2.96,0.57
			L123.33,39.33c-0.43-0.12-0.66,0.15-0.74,0.26c-0.09,0.12-0.26,0.43-0.02,0.79l25.24,38.34c0.7,1.07,0.76,2.43,0.13,3.55
			c-0.62,1.12-1.83,1.75-3.09,1.75l-53.55-1.57c-0.42-0.1-0.61,0.3-0.66,0.44c-0.05,0.14-0.15,0.48,0.18,0.78l28.26,25.31
			c0.97,0.87,1.36,2.19,1.02,3.45c-0.34,1.26-1.35,2.2-2.62,2.46l-72.8,14.72c-0.48,0.1-0.55,0.49-0.56,0.65
			c-0.01,0.16,0.03,0.56,0.5,0.7l70.42,20.77c1.35,0.4,2.31,1.56,2.44,2.97c0.13,1.4-0.6,2.72-1.85,3.36l-59.96,30.58
			c-0.44,0.22-0.4,0.62-0.36,0.78c0.04,0.16,0.18,0.53,0.67,0.54l82.04,1.21c1.26,0.02,2.36,0.69,2.96,1.79
			c0.6,1.1,0.55,2.39-0.12,3.45l-13.52,21.43c-0.21,0.34-0.07,0.64,0.01,0.75c0.07,0.11,0.28,0.36,0.68,0.31l46.13-6.81
			C174.31,212.04,174.49,212.03,174.66,212.03z"/>
	</g>
	<g>
		<path class="st1" d="M157.65,262.83l47.26-63.38l-60.85,10.08l19.16-26.61l-81.37,0.73l64.57-29.42l-72.99-22.86l70.76-12.34
			l-28.81-27.39l54.53,1.42L144,54.38l84.63,20.89l32.18-23.09l56.61,27.78l28.26-28.26l25.3,33.03l53.92-30.15v33.44l94.57-16.13
			l-61.52,40.9l74.53,9.94l-55.41,23.03l44.85,20.62l-60.74,6.43c4.59,3.55,14.4,11.13,24.19,18.72
			c17.37,13.47,23.9,18.53,26.17,20.73c0.18,0.05,0.3,0.09,0.34,0.11l-0.08,0.15c1.08,1.11,0.91,1.38,0.65,1.8l-0.66,1.05
			l-1.13-0.56c-2.32-0.75-67.27-13.39-94.54-18.66l4.21,27.75l-60.82-18.96l-40.74,15.32l-0.46-0.15l-43-14.1L157.65,262.83z
			 M211.14,195.65l-44.65,59.87l108.63-52.48l43.59,14.3l40.72-15.31l57.55,17.94l-4.14-27.26l1.9,0.36
			c23.84,4.61,74.01,14.35,91.22,17.93c-9.55-7.52-32.67-25.43-49.14-38.15l-2.69-2.08l57.63-6.1l-41.49-19.07l51.82-21.54
			l-71.69-9.56l56.85-37.79l-85.07,14.51V59.22l-51.92,29.03l-24.84-32.43l-27.44,27.44l-56.89-27.92L229.2,78.22l-79.01-19.5
			l24.92,37.21l-52.71-1.37L150,120.79l-65.02,11.34l69.06,21.63l-59.37,27.05l73.91-0.66l-18.44,25.61L211.14,195.65z"/>
	</g>
</g>
<g id="Capa_4">
	<text transform="matrix(1 0 0 1 353.0812 237.5509)" class="st2 st3">algo para saborear...</text>
</g>
<g id="Capa_3">
	<g>
		<text transform="matrix(1 0 0 1 141.7447 171.0638)"><tspan x="0" y="0" class="st2 st4">pa</tspan><tspan x="59.61" y="0" class="st5 st4">’</tspan><tspan x="82.03" y="0" class="st2 st4">su mecha</tspan></text>
		<g>
			<linearGradient id="SVGID_1_" gradientUnits="userSpaceOnUse" x1="138.2881" y1="143.5257" x2="481.8662" y2="143.5257">
				<stop  offset="4.522851e-03" style="stop-color:#F6EB1F"/>
				<stop  offset="0.3623" style="stop-color:#E3222A"/>
				<stop  offset="0.6839" style="stop-color:#812F70"/>
				<stop  offset="0.9492" style="stop-color:#323D8F"/>
			</linearGradient>
			<path class="st6" d="M147.66,116.76c7.94-2.41,14.44-3.61,19.51-3.61c6.91,0,10.32,2.41,10.22,7.22
				c-0.15,9.68-8.3,19.69-24.43,30.03c-1.13,6.25-1.95,12.03-2.46,17.36l-12.21,3.38c0.15-1.12,0.77-4.56,1.84-10.29l3.38-18.2
				C146.53,125.9,147.91,117.27,147.66,116.76z M157.34,129.05c-0.36,1.43-0.69,2.87-1,4.3l-0.85,4.22
				c4.76-2.35,7.83-4.84,9.22-7.45c0.2-0.41,0.31-0.74,0.31-1c0-0.87-0.64-1.31-1.92-1.31
				C161.87,127.82,159.95,128.23,157.34,129.05z"/>
			<linearGradient id="SVGID_2_" gradientUnits="userSpaceOnUse" x1="138.2881" y1="143.5257" x2="481.8662" y2="143.5257">
				<stop  offset="4.522851e-03" style="stop-color:#F6EB1F"/>
				<stop  offset="0.3623" style="stop-color:#E3222A"/>
				<stop  offset="0.6839" style="stop-color:#812F70"/>
				<stop  offset="0.9492" style="stop-color:#323D8F"/>
			</linearGradient>
			<path class="st7" d="M160.95,172.06c7.53-19.2,13.62-37.71,18.28-55.53l23.35-3.92c-2.66,15.52-3.87,33.87-3.61,55.07
				l-16.28,3.76l1.15-9.6l-5.15,1l-1.61,6.76L160.95,172.06z M185.07,151.51l3.53-29h-0.08l-7.22,29.73L185.07,151.51z"/>
			<linearGradient id="SVGID_3_" gradientUnits="userSpaceOnUse" x1="138.2881" y1="143.5257" x2="481.8662" y2="143.5257">
				<stop  offset="4.522851e-03" style="stop-color:#F6EB1F"/>
				<stop  offset="0.3623" style="stop-color:#E3222A"/>
				<stop  offset="0.6839" style="stop-color:#812F70"/>
				<stop  offset="0.9492" style="stop-color:#323D8F"/>
			</linearGradient>
			<path class="st8" d="M208.84,131.12c0.97-1.05,1.64-1.95,2.02-2.71c0.37-0.75,0.56-1.57,0.56-2.44c0-0.56-0.14-1.07-0.42-1.52
				c-0.28-0.45-0.64-0.75-1.08-0.9c-0.31-0.13-0.82-0.28-1.54-0.46c-2.38-0.56-3.57-1.91-3.57-4.03c0-1.28,0.46-2.34,1.38-3.19
				c0.92-0.85,2.09-1.27,3.49-1.27c2.05,0,3.73,0.71,5.03,2.13c1.31,1.42,1.96,3.25,1.96,5.47c0,2.13-0.69,4.02-2.07,5.68
				c-1.38,1.66-3.39,3.02-6.03,4.07l-0.15-0.46L208.84,131.12z"/>
			<linearGradient id="SVGID_4_" gradientUnits="userSpaceOnUse" x1="138.2881" y1="143.5257" x2="481.8662" y2="143.5257">
				<stop  offset="4.522851e-03" style="stop-color:#F6EB1F"/>
				<stop  offset="0.3623" style="stop-color:#E3222A"/>
				<stop  offset="0.6839" style="stop-color:#812F70"/>
				<stop  offset="0.9492" style="stop-color:#323D8F"/>
			</linearGradient>
			<path class="st9" d="M257.5,130.43c-1.64,0.61-3.58,1.36-5.84,2.23l-5.76,2.23c0-2.41-0.67-3.61-2-3.61
				c-1.9,0-3.79,1.08-5.68,3.23c-1.33,1.59-1.89,3.12-1.69,4.61c0.15,0.97,1.13,1.46,2.92,1.46c0.97,0,2.25-0.15,3.84-0.46
				c2.2-0.46,4.15-0.69,5.84-0.69c4.3,0,6.81,1.49,7.53,4.46c0.2,0.92,0.31,1.89,0.31,2.92c0,3.28-1.23,6.81-3.69,10.6
				c-3.18,4.97-7.63,9.14-13.37,12.52c-3.02,1.79-5.99,2.69-8.91,2.69c-2.66,0-5.28-0.74-7.83-2.23c1.28-3.07,3.33-7.6,6.14-13.6
				c1.64,1.13,3.38,1.69,5.22,1.69c0.82,0,1.66-0.13,2.53-0.38c1.59-0.41,3.1-1,4.53-1.77c2.05-1.13,3.07-2.28,3.07-3.46
				c0-1.28-1.05-1.92-3.15-1.92c-1.43,0-3.52,0.29-6.26,0.88c-2.74,0.59-4.83,0.88-6.26,0.88c-1.9,0-3.35-0.36-4.38-1.08
				c-2-1.33-2.82-3.41-2.46-6.22c0.67-5.68,4.33-12.26,10.98-19.74c6.81-7.68,12.67-11.7,17.59-12.06
				c4.76-0.31,7.14,3.28,7.14,10.75C257.88,126.16,257.75,128.18,257.5,130.43z"/>
			<linearGradient id="SVGID_5_" gradientUnits="userSpaceOnUse" x1="138.2881" y1="143.5257" x2="481.8662" y2="143.5257">
				<stop  offset="4.522851e-03" style="stop-color:#F6EB1F"/>
				<stop  offset="0.3623" style="stop-color:#E3222A"/>
				<stop  offset="0.6839" style="stop-color:#812F70"/>
				<stop  offset="0.9492" style="stop-color:#323D8F"/>
			</linearGradient>
			<path class="st10" d="M264.72,116.84l13.13-2.46c-3.53,13.42-6.15,25.45-7.83,36.1l7.3-3.07l5.38-30.57l13.13-2.46
				c-5.33,21-8.78,38.79-10.37,53.38l-12.29,3.38l1.54-8.53c-4.3,1.89-10.81,4.74-19.51,8.53L264.72,116.84z"/>
			<linearGradient id="SVGID_6_" gradientUnits="userSpaceOnUse" x1="138.2881" y1="143.5257" x2="481.8662" y2="143.5257">
				<stop  offset="4.522851e-03" style="stop-color:#F6EB1F"/>
				<stop  offset="0.3623" style="stop-color:#E3222A"/>
				<stop  offset="0.6839" style="stop-color:#812F70"/>
				<stop  offset="0.9492" style="stop-color:#323D8F"/>
			</linearGradient>
			<path class="st11" d="M299.9,171.52c6.91-17.51,12.19-35.33,15.82-53.46l18.36-3l-2.64,28.18l7.19-26.03l17.65-3.07
				c-2.1,16.69-3.15,31.75-3.15,45.17c0,2.66,0,5.3,0,7.91l-15.67,2.77l2.77-33.64l-10.06,37.25l-8.45,1.15l5.07-47.32l-10.91,41.94
				L299.9,171.52z"/>
			<linearGradient id="SVGID_7_" gradientUnits="userSpaceOnUse" x1="138.2881" y1="143.5257" x2="481.8662" y2="143.5257">
				<stop  offset="4.522851e-03" style="stop-color:#F6EB1F"/>
				<stop  offset="0.3623" style="stop-color:#E3222A"/>
				<stop  offset="0.6839" style="stop-color:#812F70"/>
				<stop  offset="0.9492" style="stop-color:#323D8F"/>
			</linearGradient>
			<path class="st12" d="M372.33,128.25c-0.41,1.49-0.77,2.95-1.07,4.39l-0.84,4.24l12.29-2.61l-0.69,10.6
				c-5.83,1.03-10.4,1.92-13.72,2.69c-0.2,1.03-0.38,2.05-0.54,3.07l-0.57,2.99l14.29-2.08l-1,14.29
				c-7.37,0.61-16.72,2.38-28.04,5.3l9.14-55.07l25.58-3.77l-1,14.27C381.14,127.03,376.53,127.59,372.33,128.25z"/>
			<linearGradient id="SVGID_8_" gradientUnits="userSpaceOnUse" x1="138.2881" y1="143.5257" x2="481.8662" y2="143.5257">
				<stop  offset="4.522851e-03" style="stop-color:#F6EB1F"/>
				<stop  offset="0.3623" style="stop-color:#E3222A"/>
				<stop  offset="0.6839" style="stop-color:#812F70"/>
				<stop  offset="0.9492" style="stop-color:#323D8F"/>
			</linearGradient>
			<path class="st13" d="M409.28,113.07c5.33,0,9.24,2.89,11.75,8.68l-8.68,9.52c-1.18-1.23-2.54-1.84-4.07-1.84
				c-2.71,0-5.53,2.33-8.45,6.99c-2.41,3.84-3.97,7.43-4.69,10.75c-0.36,1.59-0.54,3.02-0.54,4.3c0,3.43,1.25,5.79,3.76,7.07
				c0.82,0.41,1.69,0.61,2.61,0.61c2.66,0,5.45-1.97,8.37-5.91l2.46,9.14c-5.07,5.63-10.22,8.45-15.44,8.45
				c-5.33,0-9.22-2.82-11.68-8.45c-1.48-3.28-2.23-6.94-2.23-10.98c0-2.97,0.38-6.12,1.15-9.45c1.54-6.81,4.46-13.03,8.76-18.67
				C397.55,116.48,403.18,113.07,409.28,113.07z"/>
			<linearGradient id="SVGID_9_" gradientUnits="userSpaceOnUse" x1="138.2881" y1="143.5257" x2="481.8662" y2="143.5257">
				<stop  offset="4.522851e-03" style="stop-color:#F6EB1F"/>
				<stop  offset="0.3623" style="stop-color:#E3222A"/>
				<stop  offset="0.6839" style="stop-color:#812F70"/>
				<stop  offset="0.9492" style="stop-color:#323D8F"/>
			</linearGradient>
			<path class="st14" d="M421.65,116.84l14.21-2.46c-2.56,9.8-4.63,18.72-6.21,26.78l6.36-1.35l3.92-22.97l14.21-2.46
				c-5.43,20.94-8.86,38.74-10.29,53.38l-13.21,3.38l3.53-20.89c-1.43,0.31-3.61,0.77-6.53,1.38c-0.97,6.3-1.67,11.68-2.07,16.13
				l-13.21,3.38L421.65,116.84z"/>
			<linearGradient id="SVGID_10_" gradientUnits="userSpaceOnUse" x1="138.2881" y1="143.5257" x2="481.8662" y2="143.5257">
				<stop  offset="4.522851e-03" style="stop-color:#F6EB1F"/>
				<stop  offset="0.3623" style="stop-color:#E3222A"/>
				<stop  offset="0.6839" style="stop-color:#812F70"/>
				<stop  offset="0.9492" style="stop-color:#323D8F"/>
			</linearGradient>
			<path class="st15" d="M440.23,172.06c7.53-19.2,13.62-37.71,18.28-55.53l23.35-3.92c-2.66,15.52-3.87,33.87-3.61,55.07
				l-16.28,3.76l1.15-9.6l-5.15,1l-1.61,6.76L440.23,172.06z M464.36,151.51l3.53-29h-0.08l-7.22,29.73L464.36,151.51z"/>
		</g>
	</g>
</g>
</svg>
